<svg xmlns="http://www.w3.org/2000/svg" viewBox="0 0 431 217" fill="none">
  <g stroke="currentColor" stroke-width="4.3" stroke-linecap="round" stroke-linejoin="round">
    <path class="draw" style="--d:0.00s" d="M238.500000,87.000000 C240.322723,88.879395 241.783295,91.308746 244.508926,91.962830 C248.827240,92.999123 248.217834,96.373665 247.392517,98.965775 C244.531921,107.950218 244.305420,116.683517 247.940475,125.524475 C249.493744,129.302261 250.575531,133.266815 250.538193,137.500336 C250.430206,149.747726 245.747986,154.555588 233.500137,154.477814 C226.832672,154.435486 220.167053,154.148148 213.499786,154.010239 C211.224030,153.963150 209.932083,153.248566 208.300690,151.155334 C204.803085,146.667587 201.214005,142.348068 201.075256,136.498215 C200.833832,126.320015 200.951096,115.888435 209.579254,108.593742 C215.914902,103.237267 221.632462,97.686737 223.952530,89.486572 C224.445145,87.745461 224.426712,85.836288 224.484772,83.999519 C224.848251,72.500473 225.089279,60.997017 225.532578,49.501255 C225.755066,43.731026 228.215057,41.395275 234.000641,41.009567 C239.653107,40.632740 245.097565,39.986603 248.533463,34.521042 C250.268524,31.761044 251.129959,29.130926 247.972717,27.041227 C242.994675,23.746418 238.718155,19.587530 233.963165,16.049500 C221.140610,6.508615 202.780914,12.597218 196.563309,28.524715 C193.692108,35.879807 191.839844,43.634914 188.927399,50.971176 C183.319214,65.097786 173.085815,75.340401 160.522964,83.535210 C155.105652,87.068954 149.575394,90.424515 144.461288,94.450836 C134.433807,102.345459 127.366234,112.118866 123.981216,124.494865 C123.035637,127.951965 123.782005,131.712448 122.000000,135.000000"/>
    <path class="draw" style="--d:0.10s" d="M301.500000,152.500000 C301.366089,150.375549 302.463562,148.613953 303.543976,147.029984 C309.826813,137.818695 311.188416,127.925568 307.440033,117.521599 C304.732635,110.006966 305.302734,102.192261 304.509003,94.499069 C304.440948,93.839432 304.592438,93.151016 304.482697,92.502930 C304.149292,90.533630 303.727142,87.958878 301.724792,87.682854 C299.558441,87.384232 298.105713,89.178055 296.869141,91.428078 C293.844757,96.931007 296.771667,101.962563 297.725189,106.957008 C298.466248,110.838692 299.550659,114.333336 297.500000,118.000000"/>
    <path class="draw" style="--d:0.20s" d="M297.500000,144.500000 C298.813446,136.500000 301.311493,128.128464 297.282196,120.616837 C294.022919,114.540695 289.201752,109.152184 284.414093,104.081093 C277.136383,96.372536 269.926392,88.802849 267.455902,78.010094 C267.081116,76.372688 265.851562,75.061768 264.497009,74.003822 C261.274750,71.487144 259.086670,68.188522 257.538208,64.484032 C256.786774,62.686356 256.333618,60.648891 253.997986,60.545597 C251.426361,60.431870 250.968262,62.644653 249.936203,64.463799 C245.812180,71.732872 240.182816,78.173767 237.941788,86.484306 C237.907883,86.609993 237.000000,86.500000 236.500000,86.500000"/>
    <path class="draw" style="--d:0.30s" d="M162.500000,146.500000 C167.471466,136.010941 175.146042,128.345123 186.119232,123.738472 C186.966660,125.433334 188.151199,126.894730 188.429642,128.512115 C189.838806,136.698044 188.742523,145.176758 192.056854,153.270325 C186.218781,154.559631 181.084366,153.775421 175.998978,153.973633 C175.339798,153.999329 174.193192,153.829987 174.070908,153.475540 C172.195724,148.039673 166.491577,149.852692 162.864334,147.732056 C161.540054,146.957840 158.666672,148.833344 156.500000,149.500000"/>
    <path class="draw" style="--d:0.40s" d="M110.500000,106.500000 C110.107712,109.652191 107.872437,112.070755 106.660042,114.851799 C105.738937,116.964638 103.026566,118.626312 103.035309,121.499893 C103.049927,126.303032 104.685600,130.631836 107.506271,134.495422 C111.645432,140.164978 117.298622,144.152573 123.059502,147.908737 C124.847389,149.074478 126.277031,150.355011 127.500000,152.000000"/>
    <path class="draw" style="--d:0.50s" d="M107.000000,115.500000 C108.515282,116.825691 109.044563,118.559380 109.568344,120.481377 C111.311615,126.878319 113.620392,132.956772 120.993774,135.022217 C122.643929,135.484451 123.553604,136.699814 123.500000,138.500000"/>
    <path class="draw" style="--d:0.60s" d="M260.500000,126.500000 C260.513489,130.361145 260.681702,134.171677 261.422119,138.014999 C262.708405,144.691299 263.876862,144.556671 270.500000,145.500000"/>
    <path class="draw" style="--d:0.70s" d="M2 152 L34 152 L43 144 L50 160 L58 108 L65 198 L73 144 L81 160 L89 151 L97 156 L106 153 L148 153"/>
    <path class="draw" style="--d:0.80s" d="M302 152 L317 152 L321 170 L326 152 L337 141 L344 202 L353 104 L368 207 L374 150 L380 163 L388 150 L394 162 L400 151 L405 167 L411 152 L417 139 L423 151 L426 152"/>
  </g>
  <path class="draw" data-part="heart" style="--d:1.55s" d="M318.500000,89.500000 C330.569092,83.519196 342.056976,85.678169 352.402435,93.135368 C360.257141,98.797180 366.976074,98.226212 375.112274,93.701904 C383.249939,89.176781 392.460785,86.661530 401.983734,89.064491 C416,90 424,96 426,104 C427,109 427,119 426.5,129 C426,135 424.5,141 423,145 C422.410706,150.575104 413.893646,161.021515 404.904266,170.912994 C394.310760,182.569656 382.228851,192.628571 369.608521,202.143936 C359.074646,210.086166 356.280640,207.183472 348.621643,202.788055 C339.439972,197.518784 331.166656,190.666672 322.500000,184.500000" stroke="var(--logo-heart)" stroke-width="7" stroke-linecap="round" stroke-linejoin="round"/>
  <text class="logo-text" x="331" y="195" transform="scale(0.70 1)" text-anchor="middle" font-family="Manrope, Arial, sans-serif" font-weight="800" font-size="35" letter-spacing="0.5" fill="currentColor">LEAL MEDVET</text>
</svg>